<svg xmlns="http://www.w3.org/2000/svg" width="40" height="37.625" viewBox="0 0 40 37.625"><defs><style>.a{opacity:0.6;}</style></defs><g class="a"><g transform="translate(0)"><path d="M35.313,0H4.688A4.56,4.56,0,0,0,0,4.409V33.216a4.56,4.56,0,0,0,4.688,4.409H35.313A4.56,4.56,0,0,0,40,33.216V4.409A4.56,4.56,0,0,0,35.313,0Zm1.563,33.216a1.52,1.52,0,0,1-1.562,1.47H26.406V22.707h4.827l.8-4.556H26.406v-3.16a2.239,2.239,0,0,1,2.344-2.2h3.2V8.231h-3.2A6.982,6.982,0,0,0,21.564,15v3.147H16.875v4.556h4.689V34.686H4.688a1.52,1.52,0,0,1-1.563-1.47V4.409a1.52,1.52,0,0,1,1.563-1.47H35.313a1.52,1.52,0,0,1,1.563,1.47Z" transform="translate(0)"/></g></g></svg>