<svg xmlns="http://www.w3.org/2000/svg" width="40.956" height="40.023" viewBox="0 0 40.956 40.023"><defs><style>.a{fill:#f2b0d6;}</style></defs><g transform="translate(0.191 -377.521)"><g transform="translate(0.419 0)"><path class="a" d="M29.869,0H11.085A10.975,10.975,0,0,0,0,10.834V29.189A10.975,10.975,0,0,0,11.085,40.023H29.869A10.974,10.974,0,0,0,40.955,29.189V10.834A10.975,10.975,0,0,0,29.869,0Zm8.685,29.189a8.6,8.6,0,0,1-8.685,8.487H11.085A8.6,8.6,0,0,1,2.4,29.189V10.834a8.6,8.6,0,0,1,8.685-8.487H29.869a8.6,8.6,0,0,1,8.685,8.487Zm0,0" transform="translate(-0.608 377.521)"/><path class="a" d="M125.98,116a10.2,10.2,0,1,0,9.976,10.2A10.1,10.1,0,0,0,125.98,116Zm0,18.206a8.012,8.012,0,1,1,7.837-8.01A7.934,7.934,0,0,1,125.98,134.21Zm0,0" transform="translate(-105.724 270.141)"/></g><path class="a" d="M360.955,66.285a3.011,3.011,0,1,0,2.978,3.011A3,3,0,0,0,360.955,66.285Zm0,3.837a.826.826,0,1,1,.818-.826A.823.823,0,0,1,360.955,70.123Zm0,0" transform="translate(-330.167 316.236)"/></g></svg>