<svg xmlns="http://www.w3.org/2000/svg" width="42.525" height="40" viewBox="0 0 42.525 40"><defs><style>.a{fill:#f2b0d6;}</style></defs><g transform="translate(0)"><path class="a" d="M37.541,0H4.983A4.848,4.848,0,0,0,0,4.688V35.313A4.848,4.848,0,0,0,4.983,40H37.541a4.848,4.848,0,0,0,4.983-4.687V4.688A4.848,4.848,0,0,0,37.541,0ZM39.2,35.313a1.616,1.616,0,0,1-1.661,1.563H28.073V24.141H33.2l.848-4.844h-5.98V15.938a2.38,2.38,0,0,1,2.492-2.344H33.97V8.75H30.565a7.422,7.422,0,0,0-7.639,7.2V19.3H17.94v4.844h4.985V36.875H4.983a1.616,1.616,0,0,1-1.661-1.562V4.688A1.616,1.616,0,0,1,4.983,3.125H37.541A1.616,1.616,0,0,1,39.2,4.688Z" transform="translate(0)"/></g></svg>