<svg xmlns="http://www.w3.org/2000/svg" width="40" height="38.671" viewBox="0 0 40 38.671"><defs><style>.a{opacity:0.6;}</style></defs><g class="a" transform="translate(0.609 -377.521)"><path d="M29.171,0H10.827A10.664,10.664,0,0,0,0,10.468V28.2A10.664,10.664,0,0,0,10.827,38.671H29.172A10.664,10.664,0,0,0,40,28.2V10.468A10.664,10.664,0,0,0,29.171,0Zm8.483,28.2a8.355,8.355,0,0,1-8.483,8.2H10.827a8.355,8.355,0,0,1-8.483-8.2V10.468a8.355,8.355,0,0,1,8.483-8.2H29.172a8.355,8.355,0,0,1,8.482,8.2Zm0,0" transform="translate(-0.608 377.521)"/><path d="M125.489,116a9.627,9.627,0,1,0,9.485,9.626A9.567,9.567,0,0,0,125.489,116Zm0,17.189a7.563,7.563,0,1,1,7.451-7.562A7.516,7.516,0,0,1,125.489,133.193Zm0,0" transform="translate(-105.613 269.936)"/><path d="M360.78,66.285a2.845,2.845,0,1,0,2.8,2.844A2.827,2.827,0,0,0,360.78,66.285Zm0,3.625a.781.781,0,1,1,.769-.781A.776.776,0,0,1,360.78,69.91Zm0,0" transform="translate(-331.192 316.236)"/></g></svg>