<svg xmlns="http://www.w3.org/2000/svg" width="40.002" height="40" viewBox="0 0 40.002 40"><defs><style>.a{opacity:0.6;}</style></defs><g class="a" transform="translate(0 -0.011)"><g transform="translate(0 0.011)"><path d="M34.452,6.165A19.992,19.992,0,1,0,6.155,34.4c.011.011.016.029.027.039.116.111.241.206.358.313.321.286.643.581.981.857.181.143.37.286.556.417.32.238.64.477.974.7.227.143.461.286.694.428.308.186.616.373.934.543.27.143.546.266.82.4.3.143.6.286.9.414s.616.229.927.34.58.214.878.306c.337.1.683.18,1.025.264.286.07.563.15.857.207.394.079.794.129,1.194.183.247.034.488.083.738.107.654.064,1.314.1,1.979.1s1.325-.036,1.979-.1c.25-.024.491-.073.738-.107.4-.054.8-.1,1.194-.183.286-.057.571-.143.857-.207.343-.084.688-.163,1.025-.264.3-.091.587-.2.878-.306s.623-.214.927-.34.6-.273.9-.414c.274-.13.55-.253.82-.4.318-.17.626-.357.934-.543.233-.143.467-.273.694-.428.334-.22.654-.458.974-.7.186-.143.374-.271.556-.417.338-.271.66-.56.981-.857.117-.107.243-.2.358-.313.011-.01.016-.027.027-.039A19.97,19.97,0,0,0,34.452,6.165Zm-3.21,26.74c-.26.229-.528.446-.8.656-.16.123-.32.244-.484.361-.258.187-.521.364-.788.534-.194.124-.393.244-.593.361q-.377.214-.766.428c-.229.117-.461.227-.7.336s-.493.224-.746.326-.521.2-.786.286c-.241.083-.483.169-.727.241-.286.086-.584.156-.88.227-.231.054-.46.116-.694.161-.338.066-.684.111-1.031.158-.2.026-.393.061-.591.081-.548.053-1.1.084-1.665.084s-1.117-.031-1.665-.084c-.2-.02-.394-.056-.591-.081-.347-.047-.693-.093-1.031-.158-.234-.046-.463-.107-.694-.161-.3-.071-.59-.143-.88-.227-.244-.073-.486-.158-.727-.241-.264-.091-.528-.184-.786-.286s-.5-.213-.746-.326-.467-.218-.7-.336c-.258-.134-.514-.276-.766-.428-.2-.117-.4-.237-.593-.361-.267-.17-.53-.347-.788-.534-.164-.117-.324-.238-.484-.361-.271-.21-.54-.428-.8-.656-.063-.047-.12-.107-.181-.161a11.458,11.458,0,0,1,7.788-10.7,8.468,8.468,0,0,0,7.275,0,11.458,11.458,0,0,1,7.788,10.7C31.36,32.8,31.3,32.853,31.242,32.905ZM15.015,11.461a5.713,5.713,0,1,1,7.779,7.779.03.03,0,0,0-.024.009,6.051,6.051,0,0,1-1.194.506c-.074.021-.143.05-.221.069-.143.037-.293.063-.44.089a5.785,5.785,0,0,1-.838.084h-.163a5.785,5.785,0,0,1-.838-.084c-.143-.026-.294-.051-.44-.089-.076-.019-.143-.047-.221-.069a6.046,6.046,0,0,1-1.194-.506l-.026-.009A5.713,5.713,0,0,1,15.015,11.461ZM33.954,29.912h0a14.353,14.353,0,0,0-7.646-9.844,8.569,8.569,0,1,0-12.625,0,14.353,14.353,0,0,0-7.646,9.844,17.138,17.138,0,1,1,27.918,0Z" transform="translate(0 -0.011)"/></g></g></svg>